<svg xmlns="http://www.w3.org/2000/svg" viewBox="0 0 34.5 34.5" fill="#e54d2e" style="width: 0.8em;height: 0.8em;vertical-align: middle; horizontal-align: middle;">
  <path d="M34.5 20.375v-6.25h-4.514c-.32-1.313-.838-2.545-1.521-3.669l3.193-3.193-4.42-4.419-3.193 3.193c-1.125-.683-2.355-1.2-3.67-1.521V0h-6.25v4.516c-1.313.321-2.546.838-3.671 1.521L7.262 2.844 2.843 7.263l3.193 3.193c-.684 1.125-1.2 2.357-1.521 3.669H0v6.25h4.516c.32 1.312.838 2.545 1.521 3.669l-3.193 3.191 4.419 4.421 3.192-3.193c1.125.685 2.357 1.2 3.671 1.521V34.5h6.25v-4.516c1.313-.32 2.545-.838 3.67-1.521l3.192 3.193 4.421-4.421-3.193-3.191c.685-1.125 1.199-2.355 1.521-3.669H34.5zM17.25 23.5c-3.451 0-6.25-2.798-6.25-6.25S13.799 11 17.25 11s6.25 2.798 6.25 6.25-2.799 6.25-6.25 6.25z"/>
</svg>
