<?xml version="1.0" encoding="utf-8"?>
<!-- Generator: Adobe Illustrator 16.0.0, SVG Export Plug-In . SVG Version: 6.00 Build 0)  -->
<!DOCTYPE svg PUBLIC "-//W3C//DTD SVG 1.0//EN" "http://www.w3.org/TR/2001/REC-SVG-20010904/DTD/svg10.dtd">
<svg version="1.0" id="Layer_1" xmlns="http://www.w3.org/2000/svg" xmlns:xlink="http://www.w3.org/1999/xlink" x="0px" y="0px"
	 width="3840px" height="2160px" viewBox="0 0 3840 2160" enable-background="new 0 0 3840 2160" xml:space="preserve">
<circle cx="1920" cy="1080" r="750"/>
<path fill="#FFFFFF" d="M2191.199,676.395l-187.767,278.732c-12.981,18.975,11.988,41.963,29.973,25.959l184.796-160.815
	c5.005-4.014,11.989-0.991,11.989,5.994v502.467c0,6.986-9.018,10.009-12.979,5.005L1657.82,664.405
	c-17.984-21.945-43.996-33.936-72.928-33.936h-20.018c-51.919,0-94.874,42.954-94.874,95.865v707.279
	c0,52.963,42.954,95.916,95.917,95.916c32.945,0,63.909-17.097,81.895-45.977l187.767-278.679
	c13.033-18.975-11.938-42.016-29.922-26.064l-184.796,159.93c-5.005,3.961-11.989,0.938-11.989-6.046V831.218
	c0-6.986,8.965-9.958,12.979-4.953l559.391,669.278c17.984,21.895,44.936,33.987,72.928,33.987h19.965
	c52.911,0,95.865-42.953,95.865-95.916V726.335c-0.99-52.911-43.944-95.865-96.855-95.865
	C2240.147,630.47,2209.184,647.463,2191.199,676.395z"/>
</svg>
