<svg xmlns="http://www.w3.org/2000/svg" style="display: none;">
    <symbol id="icon-arrow-right" viewBox="0 0 24 24">
        <path d="M17.25 8.25L21 12m0 0l-3.75 3.75M21 12H3" />
    </symbol>
    <symbol id="icon-github" viewBox="0 0 24 24">
        <path d="M9 19c-5 1.5-5-2.5-7-3m14 6v-3.87a3.37 3.37 0 0 0-.94-2.61c3.14-.35 6.44-1.54 6.44-7A5.44 5.44 0 0 0 20 4.77 5.07 5.07 0 0 0 19.91 1S18.73.65 16 2.48a13.38 13.38 0 0 0-7 0C6.27.65 5.09 1 5.09 1A5.07 5.07 0 0 0 5 4.77a5.44 5.44 0 0 0-1.5 3.78c0 5.42 3.3 6.61 6.44 7A3.37 3.37 0 0 0 9 18.13V22" />
    </symbol>
    <symbol id="icon-lightning" viewBox="0 0 24 24">
        <path d="M13 2L3 14h9l-1 8 10-12h-9l1-8z" />
    </symbol>
    <symbol id="icon-grid" viewBox="0 0 24 24">
        <rect x="3" y="3" width="18" height="18" rx="2" />
        <path d="M9 3v18M3 9h18M3 15h18M15 3v18" />
    </symbol>
    <symbol id="icon-target" viewBox="0 0 24 24">
        <path d="M12 2v20M2 12h20" />
        <circle cx="12" cy="12" r="4" />
    </symbol>
    <symbol id="icon-arrow-right-alt" viewBox="0 0 24 24">
        <path d="M5 12h14M12 5l7 7-7 7" />
    </symbol>
    <symbol id="icon-linkedin" viewBox="0 0 24 24">
        <path d="M16 8a6 6 0 0 1 6 6v7h-4v-7a2 2 0 0 0-2-2 2 2 0 0 0-2 2v7h-4v-7a6 6 0 0 1 6-6z"></path>
        <rect x="2" y="9" width="4" height="12"></rect>
        <circle cx="4" cy="4" r="2"></circle>
    </symbol>
    <symbol id="icon-database" viewBox="0 0 24 24" stroke-linecap="round" stroke-linejoin="round">
        <ellipse cx="12" cy="5" rx="9" ry="3"></ellipse>
        <path d="M21 12c0 1.66-4 3-9 3s-9-1.34-9-3"></path>
        <path d="M3 5v14c0 1.66 4 3 9 3s9-1.34 9-3V5"></path>
    </symbol>
</svg>
